<svg xmlns="http://www.w3.org/2000/svg" version="1.1" xmlns:xlink="http://www.w3.org/1999/xlink" xmlns:svgjs="http://svgjs.com/svgjs" width="512" height="512" x="0" y="0" viewBox="0 0 64 64" style="enable-background:new 0 0 512 512" xml:space="preserve" class=""><g><path d="M62 7a1 1 0 0 0 1-1V2a1 1 0 0 0-1-1H2a1 1 0 0 0-1 1v4a1 1 0 0 0 1 1h1v24H2a1 1 0 0 0-1 1v6a1 1 0 0 0 1 1h60a1 1 0 0 0 1-1v-6a1 1 0 0 0-1-1h-1V7zM3 3h58v2H3zm37 28v-5a1 1 0 0 0-1-1H25a1 1 0 0 0-1 1v5H11V11.414l1.5-1.5 1.793 1.793 1.414-1.414L13.914 8.5l1.5-1.5h33.172l1.5 1.5-1.793 1.793 1.414 1.414L51.5 9.914l1.5 1.5V31zm-2 0H26v-4h12zM11 8.586V7h1.586zm-2 7L5.414 12 9 8.414zm-4-1.172L8.586 18 5 21.586zm4 6v7.172L5.414 24zM53 8.586 51.414 7H53zm2 11.828L58.586 24 55 27.586zm4 1.172L55.414 18 59 14.414zm-4-6V8.414L58.586 12zM7.586 7 5 9.586V7zM5 26.414l4 4V31H5zM61 37H3v-4h58zm-6-6v-.586l4-4V31zm4-21.414L56.414 7H59z" fill="#e7ab2b" data-original="#000000" class=""></path><path d="m40.179 24.453 8.004-12 1.664 1.11-8.004 12zM37.448 16.156l9-6.003 1.11 1.664-9 6.003zM14.17 13.548l1.665-1.11 8.004 12-1.664 1.11zM16.451 11.836l1.11-1.664 9 6.003-1.11 1.664z" fill="#e7ab2b" data-original="#000000" class=""></path><circle cx="32" cy="19" r="2" fill="#e7ab2b" data-original="#000000" class=""></circle><path d="M33.5 22h-3l-2.7-3.6-1.6 1.2 3 4c.188.252.485.4.8.4h4a1 1 0 0 0 .8-.4l3-4-1.6-1.2zM5 51c0 1.654 1.346 3 3 3s3-1.346 3-3-1.346-3-3-3-3 1.346-3 3zm4 0a1.001 1.001 0 0 1-2 0 1.001 1.001 0 0 1 2 0z" fill="#e7ab2b" data-original="#000000" class=""></path><path d="M13.219 50.375 9.52 55H6.48l-3.7-4.625-1.562 1.25L5 56.351V62a1 1 0 0 0 1 1h4a1 1 0 0 0 1-1v-5.649l3.781-4.726zM7 61v-4h2v4zM23 54c1.654 0 3-1.346 3-3s-1.346-3-3-3-3 1.346-3 3 1.346 3 3 3zm0-4a1.001 1.001 0 1 1-1 1c0-.552.449-1 1-1z" fill="#e7ab2b" data-original="#000000" class=""></path><path d="M28.219 50.375 24.52 55h-3.04l-3.7-4.625-1.562 1.25L20 56.351V62a1 1 0 0 0 1 1h4a1 1 0 0 0 1-1v-5.649l3.781-4.726zM22 61v-4h2v4zM38 51c0 1.654 1.346 3 3 3s3-1.346 3-3-1.346-3-3-3-3 1.346-3 3zm4 0a1.001 1.001 0 0 1-2 0 1.001 1.001 0 0 1 2 0z" fill="#e7ab2b" data-original="#000000" class=""></path><path d="M46.219 50.375 42.52 55h-3.04l-3.7-4.625-1.562 1.25L38 56.351V62a1 1 0 0 0 1 1h4a1 1 0 0 0 1-1v-5.649l3.781-4.726zM40 61v-4h2v4zM56 54c1.654 0 3-1.346 3-3s-1.346-3-3-3-3 1.346-3 3 1.346 3 3 3zm0-4a1.001 1.001 0 1 1-1 1c0-.552.449-1 1-1z" fill="#e7ab2b" data-original="#000000" class=""></path><path d="M61.219 50.375 57.52 55h-3.04l-3.7-4.625-1.562 1.25L53 56.351V62a1 1 0 0 0 1 1h4a1 1 0 0 0 1-1v-5.649l3.781-4.726zM55 61v-4h2v4zM51 44c0-1.654-1.346-3-3-3s-3 1.346-3 3 1.346 3 3 3 3-1.346 3-3zm-4 0a1.001 1.001 0 1 1 1 1c-.551 0-1-.448-1-1z" fill="#e7ab2b" data-original="#000000" class=""></path><path d="m41.219 44.625 4 5A1 1 0 0 0 46 50h4a1 1 0 0 0 .781-.375l4-5-1.562-1.25L49.52 48h-3.04l-3.7-4.625zM35 44c0-1.654-1.346-3-3-3s-3 1.346-3 3 1.346 3 3 3 3-1.346 3-3zm-4 0a1.001 1.001 0 1 1 1 1c-.551 0-1-.448-1-1z" fill="#e7ab2b" data-original="#000000" class=""></path><path d="m38.781 44.625-1.562-1.25L33.52 48h-3.04l-3.7-4.625-1.562 1.25 4 5c.191.237.478.375.782.375h4a1 1 0 0 0 .781-.375zM19 44c0-1.654-1.346-3-3-3s-3 1.346-3 3 1.346 3 3 3 3-1.346 3-3zm-4 0a1.001 1.001 0 1 1 1 1c-.551 0-1-.448-1-1z" fill="#e7ab2b" data-original="#000000" class=""></path><path d="m9.219 44.625 4 5A1 1 0 0 0 14 50h4a1 1 0 0 0 .781-.375l4-5-1.562-1.25L17.52 48h-3.04l-3.7-4.625z" fill="#e7ab2b" data-original="#000000" class=""></path></g></svg>