<svg xmlns="http://www.w3.org/2000/svg" version="1.1" xmlns:xlink="http://www.w3.org/1999/xlink" xmlns:svgjs="http://svgjs.com/svgjs" width="512" height="512" x="0" y="0" viewBox="0 0 612 612.503" style="enable-background:new 0 0 512 512" xml:space="preserve" class=""><g><path d="m361.148 373.887-45.66-69.102c-1.996-3.031-2.715-6.777-1.996-10.36l16.414-82.89a14.19 14.19 0 0 1 2.551-5.816L442.844 60.742l.078-.078c.078-.16.238-.316.316-.476.164-.16.246-.399.324-.555v-.078c10.516-16.102 6.774-38.344-8.535-49.977-15.539-11.793-37.77-9.168-50.605 5.98-.082.079-.16.157-.238.313-.079.082-.157.16-.239.238L294.441 133.91c-2.707 3.59-6.855 5.735-11 5.735h-55.71c-4.22 0-8.122-2.145-10.836-5.813l-20.082-27.34-25.825-83.687c-.078-.157-.156-.395-.156-.551-.082-.164-.082-.402-.16-.559 0-.078-.078-.078-.078-.16 0-.086-.078-.086-.078-.164C163.258 4 143.566-5.242 125.48.411c-18.886 5.898-29.332 23.433-25.343 42.726v.23c.078.399.16.801.316 1.203l26.14 84.555c2.231 7.254 5.579 14.027 10.048 20.082l57.703 79.223c3.105 4.226 3.668 9.722 1.43 14.27l-25.899 52.12a94.4 94.4 0 0 0-9.008 53.637l23.512 187.852c1.832 14.668 11.637 27.418 25.66 33.32a42.103 42.103 0 0 0 16.418 3.344c9.086 0 18.094-2.95 25.504-8.528 12.113-9.168 18.172-23.593 16.34-38.578l-21.04-168.242v-.16c-.156-1.117.079-1.91.239-2.152.32-.083.637.085.793.32l39.059 59.77-12.122 111.421v.485c-1.667 22.472 15.305 42.714 37.938 45.187 1.598.16 3.113.238 4.625.238 20.645 0 38.332-15.062 41.363-36.109v-.473l13.23-117.082c1.677-15.617-2.308-31.636-11.238-45.183zm-45.03 171.668c-8.208-.88-14.423-8.13-13.864-16.098l12.035-111.105c.715-6.293-.719-12.426-4.148-17.528v-.078l-39.13-59.777-.077-.082c-7.41-11.313-21.762-15.7-34.192-10.364-11.562 4.946-18.172 17.22-16.418 30.524v.086l21.117 168.324c.641 5.34-1.433 10.285-5.738 13.547a15.067 15.067 0 0 1-15.062 1.832c-5.18-2.23-8.688-6.61-9.329-11.711l-23.507-187.934c-1.594-13.152.562-26.378 6.453-38.336l25.824-52.285c6.617-13.543 5.184-29.722-3.902-42.156l-57.703-79.144c-2.63-3.665-4.704-7.73-6.059-12.11l-25.902-83.765c-1.352-7.332 3.664-10.125 6.855-11.082 4.703-1.434 9.879.878 11.879 5.261l26.297 85.125c0 .074.078.153.078.153.078.164.156.398.238.562.078.238.164.395.242.633.082.16.16.324.239.48.16.317.316.559.48.875.078.078.078.157.156.246.239.395.473.707.72 1.11l21.44 29.172c7.883 10.761 19.762 16.894 32.672 16.894h55.711c12.59 0 24.786-6.133 32.594-16.418l89.266-117.398c3.508-3.98 9.48-4.781 13.387-1.828 4.066 3.105 5.101 9.242 2.316 13.543L310.859 189.3c-3.664 4.86-6.293 10.762-7.57 16.972l-16.418 82.891c-2.074 10.524.16 21.602 5.977 30.524l45.59 69.101c5.5 8.29 7.886 17.934 6.855 27.254l-13.074 116.758c-1.035 8.207-7.973 13.637-16.102 12.754zm0 0" fill="#e7ab2b" data-original="#000000" class=""></path><path d="M255.79 130.559c30.519 0 55.312-24.786 55.312-55.309 0-30.527-24.793-55.316-55.313-55.316-30.523 0-55.312 24.789-55.312 55.316 0 30.445 24.789 55.309 55.312 55.309zm0-83.602c15.538 0 28.214 12.676 28.214 28.215s-12.676 28.215-28.215 28.215c-15.547 0-28.215-12.676-28.215-28.215s12.668-28.215 28.215-28.215zM489.867 296.254c-3.668-10.836-7.972-19.363-13.074-26.059-10.04-13.39-25.504-18.73-37.938-21.914-3.421-.883-7.09-1.761-11.156-2.554-1.832-.395-3.66-.72-5.578-1.114l-.562-.164c-4.383-.875-5.414-1.035-6.696-1.035-3.422 0-6.691 1.594-8.765 4.309-2.145 2.703-2.864 6.21-1.989 9.558.16.723.16.801 34.114 83.926-.641.16-1.356.316-2.075.477-3.187.875-5.66 2.074-7.816 3.187-2.387 1.277-4.539 2.711-6.773 4.461-7.09 5.582-12.344 12.992-14.899 20.965-2.875 8.93-1.597 17.851 3.586 25.02.313.484.719.96 1.195 1.363 4.864 4.86 11.164 7.25 18.09 7.25 5.418 0 11.16-1.512 16.82-4.461 5.5-2.871 10.438-7.094 14.739-12.356 7.176-8.847 10.125-18.886 8.129-28.136-.235-1.27-.637-2.547-1.031-3.825-.325-.8-.641-1.515-.958-2.312-3.582-8.844-22.796-55.863-33.875-83.13h.16c9.407 2.403 19.848 5.981 25.665 13.716 3.668 4.86 6.855 11.394 9.804 19.926 1.996 5.812 8.364 8.925 14.188 6.93 5.582-1.915 8.687-8.208 6.695-14.028zm-46.226 76.828c-2.313 2.871-5.024 5.184-7.813 6.617-2.785 1.434-6.297 2.313-8.047 1.594-.32-.875-.558-2.148.078-4.223 1.196-3.664 3.907-7.41 7.493-10.199 1.113-.879 2.23-1.672 3.425-2.234 1.512-.793 2.23-1.11 3.114-1.356 3.183-.879 4.379-.558 4.699-.394.238.078.394.156.562.238.075.156.075.312.075.48.64 2.387-.797 5.977-3.586 9.477zM131.055 259.516l-16.094-47.028a5.178 5.178 0 0 0-.324-1.11c-.157-.405-.235-.718-.473-1.12l-10.684-31.156c-3.984-11.559-16.574-17.696-28.128-13.793l-52.684 17.933c-5.578 1.918-10.125 5.895-12.75 11.235-2.55 5.34-2.945 11.32-1.04 16.902l20.161 59.05c-.473.083-1.031.243-1.508.329-8.293 1.984-15.941 6.926-22.16 14.105-3.984 4.617-6.613 9.395-7.969 14.34-1.914 7.258-.879 14.512 3.11 21.121.48.805 1.113 1.598 1.754 2.23 4.785 4.708 10.996 7.098 17.851 7.098 5.817 0 12.031-1.754 18.176-5.261 8.762-5.024 15.293-12.274 18.566-20.489 1.672-4.382 2.391-8.761 2.067-12.984-.156-2.156-.63-4.148-1.348-6.137v-.078l-12.914-37.777 52.445-17.934 5.579 16.34c-9.645 1.828-18.81 7.566-25.27 16.094-3.262 4.226-5.418 8.691-6.531 13.23-1.914 7.817-.559 15.625 3.746 21.442.316.484.719.957 1.195 1.355 4.863 4.777 10.996 7.168 17.774 7.168 5.023 0 10.441-1.351 15.941-4.062 9.723-4.782 17.297-12.907 20.797-22.313 1.914-5.184 2.555-10.207 1.754-14.906-.235-1.274-.637-2.55-1.04-3.824zM36.059 295.94c-1.356 3.422-4.461 6.696-8.848 9.164-2.871 1.594-6.297 2.711-8.29 2.149-.241-.793-.16-1.512.079-2.227.48-1.675 1.594-3.59 3.348-5.664 3.109-3.586 6.855-6.054 10.52-7.011 1.6-.399 2.55-.32 3.112-.239.239.078.473.16.555.16.078.079.078.317.16.551a8.08 8.08 0 0 1-.636 3.117zm1.351-69.976L30 204.363l52.441-17.86 7.41 21.61zm72.05 44.465c-1.597 4.148-5.183 7.894-9.804 10.207-3.265 1.593-5.656 2.07-7.254 1.511-.078-.48 0-1.191.164-2.152.399-1.516 1.27-3.183 2.625-5.023 3.59-4.7 8.93-7.727 13.95-7.883h.957c0 .555 0 1.59-.637 3.34zm0 0" fill="#e7ab2b" data-original="#000000" class=""></path></g></svg>