<svg xmlns="http://www.w3.org/2000/svg" version="1.1" xmlns:xlink="http://www.w3.org/1999/xlink" xmlns:svgjs="http://svgjs.com/svgjs" width="512" height="512" x="0" y="0" viewBox="0 0 64 64" style="enable-background:new 0 0 512 512" xml:space="preserve" class=""><g><linearGradient id="a" x1="-4.756" x2="57.117" y1="5.033" y2="66.905" gradientUnits="userSpaceOnUse"><stop stop-opacity="1" stop-color="#e7ab2b" offset="0"></stop><stop stop-opacity="1" stop-color="#e7ab2b" offset="1"></stop></linearGradient><linearGradient xlink:href="#a" id="b" x1=".021" x2="61.894" y1=".256" y2="62.129"></linearGradient><linearGradient xlink:href="#a" id="c" x1="20.323" x2="82.196" y1="-20.046" y2="41.827"></linearGradient><linearGradient xlink:href="#a" id="d" x1="15.45" x2="77.322" y1="-15.172" y2="46.7"></linearGradient><linearGradient xlink:href="#a" id="e" x1="15.45" x2="77.322" y1="-15.173" y2="46.7"></linearGradient><linearGradient xlink:href="#a" id="f" x1="-9.06" x2="52.813" y1="9.337" y2="71.21"></linearGradient><linearGradient xlink:href="#a" id="g" x1="-4.187" x2="57.686" y1="4.464" y2="66.337"></linearGradient><path fill="url(#a)" d="M34.024 11.281a5.634 5.634 0 0 0-7.961 0L21.741 15.6a5.792 5.792 0 0 0-1.707 4.119v15.9a15.214 15.214 0 0 0-2.585-.221c-6.6 0-11.977 4.146-11.977 9.243s5.373 9.243 11.977 9.243 11.979-4.146 11.979-9.243l-.038-20.474a3.832 3.832 0 0 1 2.542-3.607 5.63 5.63 0 0 0 2.092-9.284zm-.439 4.779a3.612 3.612 0 0 1-2.323 2.62 5.834 5.834 0 0 0-3.871 5.494l.038 20.472c0 3.994-4.477 7.243-9.979 7.243s-9.978-3.249-9.978-7.243 4.475-7.246 9.977-7.246a13.241 13.241 0 0 1 3.333.427 1 1 0 0 0 1.252-.968V19.721a3.805 3.805 0 0 1 1.121-2.705l4.322-4.316a3.63 3.63 0 0 1 6.108 3.365z" data-original="url(#a)" class=""></path><path fill="url(#b)" d="M47 43.9a10.709 10.709 0 0 0-1.443.1V33.535A4.262 4.262 0 0 0 44.3 30.5l-2.946-2.946a4.156 4.156 0 1 0-4.332 6.854 2.289 2.289 0 0 1 1.521 2.156l-.026 13.956c0 3.65 3.806 6.619 8.483 6.619s8.482-2.969 8.482-6.619S51.681 43.9 47 43.9zm0 11.237c-3.574 0-6.483-2.072-6.483-4.619l.026-13.953a4.3 4.3 0 0 0-2.85-4.044 2.155 2.155 0 0 1-.8-3.555 2.158 2.158 0 0 1 3.048 0l2.946 2.946a2.275 2.275 0 0 1 .671 1.619v11.685a1 1 0 0 0 1.252.968A8.759 8.759 0 0 1 47 45.9c3.574 0 6.482 2.071 6.482 4.618S50.578 55.141 47 55.141z" data-original="url(#b)" class=""></path><path fill="url(#c)" d="M52.538 17.5a3.166 3.166 0 0 0 2.246-.929c.429-.429 3.882-4.919 2.155-6.648-.721-.721-1.951-.642-3.765.25a12.523 12.523 0 0 0-2.882 1.9 3.176 3.176 0 0 0 2.246 5.427zm-.832-4.008a10.614 10.614 0 0 1 3.706-2.041 10.641 10.641 0 0 1-2.042 3.706 1.177 1.177 0 1 1-1.664-1.665z" data-original="url(#c)"></path><path fill="url(#d)" d="M43.052 15.827a3.176 3.176 0 0 0 2.874-4.518 12.512 12.512 0 0 0-2.057-2.777c-1.4-1.456-2.525-1.957-3.452-1.522-2.214 1.032-.506 6.434-.25 6.984a3.182 3.182 0 0 0 2.885 1.833zm-1.723-6.86a10.632 10.632 0 0 1 2.784 3.187 1.175 1.175 0 0 1-.568 1.563 1.181 1.181 0 0 1-1.566-.568 10.674 10.674 0 0 1-.65-4.182z" data-original="url(#d)" class=""></path><path fill="url(#e)" d="M58.331 22.993a12.535 12.535 0 0 0-2.777-2.057 3.18 3.18 0 0 0-4.222 1.536A3.18 3.18 0 0 0 52.87 26.7a14.017 14.017 0 0 0 4.4.87c1.156 0 2.19-.273 2.585-1.12.429-.931-.069-2.06-1.524-3.457zm-4.617 1.889a1.177 1.177 0 1 1 1-2.133 10.624 10.624 0 0 1 3.186 2.784 10.655 10.655 0 0 1-4.186-.651z" data-original="url(#e)"></path><path fill="url(#f)" d="M9.216 25.458c-.429.428-3.883 4.92-2.155 6.647a1.737 1.737 0 0 0 1.287.486 5.926 5.926 0 0 0 2.478-.735 12.588 12.588 0 0 0 2.882-1.905 3.177 3.177 0 0 0-4.492-4.493zm3.078 3.079a10.614 10.614 0 0 1-3.706 2.041 10.624 10.624 0 0 1 2.042-3.706 1.177 1.177 0 0 1 1.664 1.665z" data-original="url(#f)"></path><path fill="url(#g)" d="M8.446 21.092a3.137 3.137 0 0 0 1.336.3 3.183 3.183 0 0 0 2.886-1.833 3.179 3.179 0 0 0-1.538-4.221c-.549-.256-5.95-1.966-6.983.25-.431.925.067 2.054 1.522 3.452a12.558 12.558 0 0 0 2.777 2.052zm1.84-3.946a1.177 1.177 0 1 1-1 2.134 10.624 10.624 0 0 1-3.181-2.78 10.607 10.607 0 0 1 4.181.646z" data-original="url(#g)"></path></g></svg>