<svg xmlns="http://www.w3.org/2000/svg" version="1.1" xmlns:xlink="http://www.w3.org/1999/xlink" xmlns:svgjs="http://svgjs.com/svgjs" width="512" height="512" x="0" y="0" viewBox="0 0 64 64" style="enable-background:new 0 0 512 512" xml:space="preserve"><g><path d="M61 57v-1a3 3 0 0 0-3-3h-1v-5h2a3 3 0 0 0 3-3V19a3 3 0 0 0-3-3h-3V4a3 3 0 0 0-3-3H11a3 3 0 0 0-3 3v27H4a3 3 0 0 0 0 6h2v20H3a2 2 0 0 0-2 2v2a2 2 0 0 0 2 2h58a2 2 0 0 0 2-2v-2a2 2 0 0 0-2-2zm-2-1v1H49v-1a1 1 0 0 1 1-1h8a1 1 0 0 1 1 1zM40 37h6v2h-8v-2zm0-6h-8.051a10.014 10.014 0 0 0-6.249-8.283 6 6 0 1 0-7.392 0A10.03 10.03 0 0 0 14 26.026V7h36v9h-1a3 3 0 0 0-3 3v16h-3.184A2.966 2.966 0 0 0 43 34a3 3 0 0 0-3-3zM18 18a4 4 0 1 1 4 4 4 4 0 0 1-4-4zm11.931 13H14.069a7.993 7.993 0 0 1 15.862 0zM38 41h8v4a3 3 0 0 0 3 3h2v5h-1a3 3 0 0 0-3 3v1h-9zm17 12h-2v-5h2zm5-34v26a1 1 0 0 1-1 1H49a1 1 0 0 1-1-1V19a1 1 0 0 1 1-1h10a1 1 0 0 1 1 1zM10 4a1 1 0 0 1 1-1h42a1 1 0 0 1 1 1v12h-2V7a2 2 0 0 0-2-2H14a2 2 0 0 0-2 2v24h-2zM3 34a1 1 0 0 1 1-1h36a1 1 0 0 1 0 2H4a1 1 0 0 1-1-1zm5 3h28v20H8zM3 61v-2h58v2z" fill="#e7ab2b" data-original="#000000"></path><path d="M50 20h8v2h-8zM54 32a4 4 0 1 0-4-4 4 4 0 0 0 4 4zm0-6a2 2 0 1 1-2 2 2 2 0 0 1 2-2zM52 34h6v2h-6zM50 38h8v2h-8zM50 42h8v2h-8zM31 40H13a3 3 0 0 0-3 3v8a3 3 0 0 0 3 3h18a3 3 0 0 0 3-3v-8a3 3 0 0 0-3-3zm1 11a1 1 0 0 1-1 1H13a1 1 0 0 1-1-1v-8a1 1 0 0 1 1-1h18a1 1 0 0 1 1 1zM44 16v-6a1 1 0 0 0-1-1H31a1 1 0 0 0-1 1v6a1 1 0 0 0 1 1h12a1 1 0 0 0 1-1zm-12-5h4v4h-4zm10 4h-4v-4h4zM34 19h10v2H34zM34 23h10v2H34z" fill="#e7ab2b" data-original="#000000"></path></g></svg>