<svg xmlns="http://www.w3.org/2000/svg" version="1.1" xmlns:xlink="http://www.w3.org/1999/xlink" xmlns:svgjs="http://svgjs.com/svgjs" width="512" height="512" x="0" y="0" viewBox="0 0 512.001 512.001" style="enable-background:new 0 0 512 512" xml:space="preserve" class=""><g><path d="M254.888 49.549c-5.523 0-10 4.477-10 10v73.185c0 5.523 4.477 10 10 10 5.522 0 10-4.477 10-10V59.549c0-5.523-4.478-10-10-10zM261.96 10.555a10.076 10.076 0 0 0-7.07-2.93c-2.64 0-5.21 1.07-7.07 2.93s-2.93 4.44-2.93 7.07 1.07 5.21 2.93 7.07 4.43 2.93 7.07 2.93c2.63 0 5.21-1.07 7.07-2.93s2.93-4.44 2.93-7.07-1.071-5.21-2.93-7.07z" fill="#e7ab2b" data-original="#000000"></path><path d="M290.714 173.895v-20.423c0-16.949-13.789-30.738-30.738-30.738H249.8c-16.949 0-30.738 13.789-30.738 30.738v20.423c-21.826 4.907-42.01 14.201-59.58 26.897-.68.383-1.31.85-1.886 1.382-39.996 29.779-65.953 77.409-65.953 130.995 0 53.591 25.961 101.231 65.964 131.012.556.512 1.168.956 1.822 1.329 26.864 19.432 59.845 30.904 95.459 30.904 90.014 0 163.245-73.231 163.245-163.245 0-77.708-54.582-142.901-127.419-159.274zM147.191 238.83a479.854 479.854 0 0 0-5.997 37.652c-.378.077-.756.148-1.134.225l-18.376 3.773c6.097-15.36 14.781-29.421 25.507-41.65zm-31.956 126.271a143.156 143.156 0 0 1-3.592-31.932 143.2 143.2 0 0 1 3.373-30.93c.179-.027.358-.046.538-.083l23.633-4.853a480.618 480.618 0 0 0 .059 72.523l-23.768-4.689c-.081-.016-.162-.022-.243-.036zm6.844 21.724 18.056 3.562c.384.076.768.145 1.152.22a479.697 479.697 0 0 0 5.904 36.902 143.544 143.544 0 0 1-25.112-40.684zm51.03-171.193a142.769 142.769 0 0 1 40.452-19.622 679.613 679.613 0 0 0-10.658 71.366 571.837 571.837 0 0 0-41.078 5.293 459.276 459.276 0 0 1 11.284-57.037zm-13.544 77.721a553.601 553.601 0 0 1 41.711-5.728 676.702 676.702 0 0 0-1.456 42.311 676.986 676.986 0 0 0 1.674 49.19 574.786 574.786 0 0 1-41.871-5.509 460.614 460.614 0 0 1-.058-80.264zm13.544 157.353a459.392 459.392 0 0 1-11.206-56.441 594.05 594.05 0 0 0 41.322 5.105 679.112 679.112 0 0 0 10.954 71.141 142.72 142.72 0 0 1-41.07-19.805zM388.092 280.48l-18.376-3.773c-1.025-.211-2.052-.407-3.077-.612a479.642 479.642 0 0 0-6.511-39.994c11.86 12.849 21.408 27.862 27.964 44.379zm-53.738-66.433a459.529 459.529 0 0 1 11.663 58.313 571.94 571.94 0 0 0-41.039-5.162 681.083 681.083 0 0 0-10.77-71.786 142.706 142.706 0 0 1 40.146 18.635zm-95.292-60.575c0-5.921 4.817-10.738 10.738-10.738h10.176c5.921 0 10.738 4.817 10.738 10.738v17.222a164.27 164.27 0 0 0-15.826-.77c-5.339 0-10.617.266-15.826.77v-17.222zm-4.068 37.84a143.948 143.948 0 0 1 19.894-1.388c6.079 0 12.069.384 17.951 1.122a660.545 660.545 0 0 1 11.893 74.721 564.671 564.671 0 0 0-61.536.106 654.04 654.04 0 0 1 11.798-74.561zm37.227 283.919-.03.136a144.091 144.091 0 0 1-17.303 1.048 144.081 144.081 0 0 1-19.254-1.299c-5.464-24.476-9.491-49.309-12.103-74.311a587.95 587.95 0 0 0 31.357.848c9.84 0 19.68-.252 29.515-.746a660.062 660.062 0 0 1-12.182 74.324zm62.133-22.94a142.645 142.645 0 0 1-40.781 18.811 681.281 681.281 0 0 0 11.082-71.564 594.195 594.195 0 0 0 41.281-4.975 459.449 459.449 0 0 1-11.582 57.728zm13.874-78.355a575.065 575.065 0 0 1-41.842 5.364c.181-2.573.352-5.147.503-7.719.326-5.514-3.88-10.246-9.394-10.571a9.987 9.987 0 0 0-10.57 9.395 656.917 656.917 0 0 1-.702 10.369 567.535 567.535 0 0 1-64.481-.1 665.894 665.894 0 0 1-.232-94.669 544.99 544.99 0 0 1 64.944-.104c.276 3.935.524 7.87.728 11.805.276 5.339 4.692 9.483 9.978 9.483.175 0 .351-.005.526-.014 5.516-.286 9.755-4.989 9.469-10.504a680.257 680.257 0 0 0-.549-9.227 553.086 553.086 0 0 1 41.679 5.576c2.356 26.919 2.336 54-.057 80.916zm11.899 56.302a479.645 479.645 0 0 0 6.419-39.26c1.031-.198 2.063-.388 3.093-.591l18.057-3.562c-6.542 16.135-15.941 30.815-27.569 43.413zm34.17-65.101-25.692 5.068a480.554 480.554 0 0 0 .058-73.297l25.557 5.248c.18.037.359.056.539.083a143.21 143.21 0 0 1 3.373 30.931c0 10.973-1.244 21.66-3.592 31.932-.081.013-.162.019-.243.035z" fill="#e7ab2b" data-original="#000000"></path><path d="M304.439 326.095c-1.859-1.86-4.439-2.93-7.069-2.93s-5.21 1.07-7.07 2.93a10.077 10.077 0 0 0-2.93 7.08c0 2.63 1.07 5.2 2.93 7.07 1.86 1.86 4.44 2.92 7.07 2.92s5.21-1.06 7.069-2.92a10.09 10.09 0 0 0 2.931-7.07 10.1 10.1 0 0 0-2.931-7.08zM89.769 444.978a43.927 43.927 0 0 1-31.391-31.801 10 10 0 0 0-19.402 0A43.931 43.931 0 0 1 7.577 444.98C3.116 446.162 0 450.212 0 454.827s3.116 8.665 7.577 9.848l.008.002a43.928 43.928 0 0 1 31.391 31.801 10.001 10.001 0 0 0 19.402 0 43.93 43.93 0 0 1 31.399-31.804 10.195 10.195 0 0 0 7.577-9.859c-.005-4.621-3.131-8.668-7.585-9.837zm-41.092 25.424A63.98 63.98 0 0 0 33.1 454.827a63.998 63.998 0 0 0 15.577-15.575 63.998 63.998 0 0 0 15.578 15.574 64.006 64.006 0 0 0-15.578 15.576zM173.634 140.823a25.133 25.133 0 0 0-.541-1.061c-.085-.219-.168-.439-.27-.655l-34.701-73.324a9.998 9.998 0 0 0-14.03-4.388l-76.123 43.833a10 10 0 0 0-4.049 12.943l21.345 45.103c-4.958.365-9.986 1.689-14.744 3.94-7.939 3.758-14.628 9.768-18.835 16.924-4.929 8.385-5.735 17.463-2.212 24.907 3.523 7.444 11.055 12.576 20.664 14.081 2.014.316 4.068.472 6.141.472 6.367 0 12.899-1.472 18.888-4.306 7.986-3.779 14.451-9.792 18.204-16.93 4.188-7.964 4.596-16.743 1.121-24.086a23.265 23.265 0 0 0-.535-1.043c-.087-.225-.173-.451-.277-.672l-27.735-58.606 58.735-33.82 19.704 41.635c-4.832.376-9.835 1.678-14.72 3.99-7.94 3.757-14.629 9.768-18.835 16.924-4.929 8.385-5.735 17.463-2.212 24.907 4.412 9.321 15.034 14.533 26.951 14.533 6.128 0 12.6-1.379 18.743-4.286 17.745-8.397 26.232-26.413 19.323-41.015zM68.065 183.165c1.061 0 2.089.098 3.062.298 1.527.313 4.244 1.168 5.285 3.37 1.043 2.2-.018 4.843-.744 6.223-1.723 3.277-5.024 6.251-9.057 8.159-4.224 1.999-9.225 2.805-13.379 2.154-2.833-.444-5.063-1.573-5.681-2.878-.617-1.304-.077-3.744 1.376-6.217 2.13-3.625 5.924-6.982 10.148-8.981 2.951-1.397 6.095-2.128 8.99-2.128zm77.689-19.403c-8.441 3.996-17.573 2.42-19.06-.724-.617-1.304-.077-3.745 1.376-6.217 2.13-3.625 5.924-6.981 10.148-8.98 3.129-1.481 6.261-2.128 9.003-2.128 4.064 0 7.272 1.423 8.333 3.667 1.78 3.757-2.033 10.706-9.8 14.382zM449.225 125.861a43.93 43.93 0 0 1-31.393-31.801 9.998 9.998 0 0 0-19.401 0 43.92 43.92 0 0 1-31.381 31.799 10.194 10.194 0 0 0-7.595 9.852c0 4.621 3.119 8.67 7.585 9.85a43.923 43.923 0 0 1 31.391 31.801 10 10 0 0 0 19.401-.001 43.927 43.927 0 0 1 31.383-31.799 10.194 10.194 0 0 0 7.594-9.839 10.199 10.199 0 0 0-7.584-9.862zm-41.093 25.424a63.972 63.972 0 0 0-15.576-15.574 63.976 63.976 0 0 0 15.576-15.575 63.976 63.976 0 0 0 15.576 15.575 64.025 64.025 0 0 0-15.576 15.574zM502.417 396.236c-19.026-.794-43.783-11.338-44.026-11.443a10.001 10.001 0 0 0-13.871 7.889l-7.573 57.936c-4.461-2.472-9.635-4.204-15.295-4.944-8.924-1.168-18.019.301-25.608 4.131-8.863 4.474-14.57 11.811-15.658 20.13-1.088 8.319 2.542 16.877 9.958 23.479 6.351 5.652 14.763 9.408 23.686 10.574 1.997.261 3.966.388 5.896.388 17.323 0 31.497-10.192 33.421-24.902v-.001c.021-.161.03-.32.048-.48.016-.102.041-.201.054-.304l9.266-70.886c10.263 3.524 25.353 7.853 38.869 8.417 5.531.217 10.178-4.057 10.408-9.574.23-5.52-4.057-10.18-9.575-10.41zm-68.903 80.644c-.576 4.402-7.923 8.449-16.893 7.277-4.842-.633-9.694-2.757-12.98-5.682-2.321-2.067-3.634-4.346-3.424-5.948.209-1.602 2.063-3.466 4.838-4.867 3.046-1.537 6.877-2.366 10.702-2.366 1.107 0 2.215.069 3.303.211 8.97 1.173 15.029 6.972 14.454 11.375z" fill="#e7ab2b" data-original="#000000"></path></g></svg>