<svg xmlns="http://www.w3.org/2000/svg" version="1.1" xmlns:xlink="http://www.w3.org/1999/xlink" xmlns:svgjs="http://svgjs.com/svgjs" width="512" height="512" x="0" y="0" viewBox="0 0 64 64" style="enable-background:new 0 0 512 512" xml:space="preserve" class=""><g><path d="M2 63h24a1 1 0 0 0 1-1v-6a4.99 4.99 0 0 0-3.475-4.737A4.455 4.455 0 0 0 24.5 48.5a4.5 4.5 0 0 0-9 0 4.455 4.455 0 0 0 .975 2.763A4.992 4.992 0 0 0 14 53.031a4.992 4.992 0 0 0-2.475-1.768A4.455 4.455 0 0 0 12.5 48.5a4.5 4.5 0 0 0-9 0 4.455 4.455 0 0 0 .975 2.763A4.99 4.99 0 0 0 1 56v6a1 1 0 0 0 1 1zm18-17a2.5 2.5 0 1 1-2.5 2.5A2.502 2.502 0 0 1 20 46zm-5 10a3.003 3.003 0 0 1 3-3h4a3.003 3.003 0 0 1 3 3v5H15zM8 46a2.5 2.5 0 1 1-2.5 2.5A2.502 2.502 0 0 1 8 46zM3 56a3.003 3.003 0 0 1 3-3h4a3.003 3.003 0 0 1 3 3v5H3zM59.525 51.263A4.455 4.455 0 0 0 60.5 48.5a4.5 4.5 0 0 0-9 0 4.455 4.455 0 0 0 .975 2.763A4.99 4.99 0 0 0 49 56v6a1 1 0 0 0 1 1h12a1 1 0 0 0 1-1v-6a4.99 4.99 0 0 0-3.475-4.737zM56 46a2.5 2.5 0 1 1-2.5 2.5A2.502 2.502 0 0 1 56 46zm5 15H51v-5a3.003 3.003 0 0 1 3-3h4a3.003 3.003 0 0 1 3 3zM61 32V2a1 1 0 0 0-1-1H4a1 1 0 0 0-1 1v30a1 1 0 0 0 1 1h56a1 1 0 0 0 1-1zm-2-1H5V3h54zM51 43v-6a2.003 2.003 0 0 0-2-2h-8a2.003 2.003 0 0 0-2 2v6a2.003 2.003 0 0 0 2 2h1.65l4.725 3.781a1 1 0 0 0 1.595-1.023L48.28 45H49a2.003 2.003 0 0 0 2-2zm-4 0a1 1 0 0 0-.97 1.242l.282 1.126-2.687-2.15A1.002 1.002 0 0 0 43 43h-2v-6h8l.002 6zM27.46 48.842a1.002 1.002 0 0 0 1.165-.06L33.351 45H35a2.003 2.003 0 0 0 2-2v-6a2.003 2.003 0 0 0-2-2h-8a2.003 2.003 0 0 0-2 2v6a2.003 2.003 0 0 0 2 2h.719l-.689 2.758a.998.998 0 0 0 .43 1.084zM27 43v-6h8v6h-2a1.002 1.002 0 0 0-.625.219l-2.687 2.15.282-1.127A1 1 0 0 0 29 43z" fill="#e7ab2b" data-original="#000000"></path><path d="M42.12 12.79a5.948 5.948 0 0 0 2.38 6.06V21a3.003 3.003 0 0 0 3 3h1a3.003 3.003 0 0 0 3-3v-2.152a5.993 5.993 0 1 0-9.38-6.059zM48.5 22h-1a1 1 0 0 1-1-1h3a1 1 0 0 1-1 1zm-4.419-8.821a3.977 3.977 0 0 1 3.041-3.087 4.314 4.314 0 0 1 .886-.093 3.947 3.947 0 0 1 2.511.894 3.978 3.978 0 0 1-.522 6.55 1 1 0 0 0-.497.864V19h-3v-.693a1 1 0 0 0-.497-.865 3.979 3.979 0 0 1-1.922-4.263zM47 5h2v2h-2zM55 12h2v2h-2zM39 12h2v2h-2zM40.923 7.71l1.414-1.414 1.414 1.414-1.414 1.414zM52.236 7.712l1.414-1.414 1.414 1.414-1.414 1.414zM16.12 22.96h.053a4.007 4.007 0 0 0 2.746-6.876 4.027 4.027 0 0 0-2.848-1.138 4.007 4.007 0 0 0 .05 8.014zm-1.435-5.407a1.992 1.992 0 0 1 1.412-.607h.027a2.007 2.007 0 0 1 .023 4.014 2.143 2.143 0 0 1-1.425-.57 2.007 2.007 0 0 1-.037-2.837z" fill="#e7ab2b" data-original="#000000"></path><path d="M7.178 21.009a1 1 0 0 0 .1.759l2 3.464a1.001 1.001 0 0 0 .607.466 1.02 1.02 0 0 0 .759-.1l1.424-.86a6.58 6.58 0 0 0 1.004.578V27a1 1 0 0 0 1 1h4a1 1 0 0 0 1-1l-.039-1.663a6.61 6.61 0 0 0 1.01-.58l1.457.842a1.018 1.018 0 0 0 .759.1 1.001 1.001 0 0 0 .607-.467l2-3.464A1 1 0 0 0 24.5 20.4l-1.452-.838q.025-.284.024-.563 0-.28-.024-.563l1.452-.838a1 1 0 0 0 .366-1.367l-2-3.464A1 1 0 0 0 21.5 12.4l-1.425.862a6.62 6.62 0 0 0-1.003-.58V11a1 1 0 0 0-1-1h-4a1 1 0 0 0-1 1l.038 1.663a6.61 6.61 0 0 0-1.01.58l-1.456-.842a1 1 0 0 0-1.367.367l-2 3.464a1 1 0 0 0 .367 1.367l1.453.838a6.496 6.496 0 0 0 0 1.126l-1.453.838a1.001 1.001 0 0 0-.466.608zm3.981-1.095a4.85 4.85 0 0 1 0-1.828 1 1 0 0 0-.483-1.047l-1.166-.673 1-1.732.592.343a1.977 1.977 0 0 0 2.107-.072 5.099 5.099 0 0 1 .746-.43 1.974 1.974 0 0 0 1.117-1.791V12h2v.684a1.977 1.977 0 0 0 1.12 1.794 4.995 4.995 0 0 1 .74.426 1.977 1.977 0 0 0 2.111.072l.59-.342 1 1.732-1.165.673a1 1 0 0 0-.484 1.047 4.797 4.797 0 0 1 0 1.828 1 1 0 0 0 .484 1.047l1.166.673-1 1.732-.591-.342a1.975 1.975 0 0 0-2.108.07 5.099 5.099 0 0 1-.747.43 1.975 1.975 0 0 0-1.116 1.792V26h-2v-.684a1.977 1.977 0 0 0-1.12-1.794 4.994 4.994 0 0 1-.741-.426 1.98 1.98 0 0 0-2.11-.072l-.591.342-1-1.732 1.166-.673a1 1 0 0 0 .483-1.047zM47 26h2v2h-2zM43 26h2v2h-2zM39 26h2v2h-2zM35 26h2v2h-2zM35 22h2v2h-2zM35 18h2v2h-2zM31 18h2v2h-2zM27 18h2v2h-2z" fill="#e7ab2b" data-original="#000000"></path></g></svg>